<mxfile host="Electron" modified="2024-05-19T10:33:09.202Z" agent="Mozilla/5.0 (Windows NT 10.0; Win64; x64) AppleWebKit/537.36 (KHTML, like Gecko) draw.io/24.4.0 Chrome/120.0.6099.109 Electron/28.1.0 Safari/537.36" etag="_rzjmrti43PoncCUmVM9" version="24.4.0" type="device">
  <diagram name="Страница — 1" id="r_DKx0A9JSC__PHDNdbE">
    <mxGraphModel dx="3447" dy="1068" grid="1" gridSize="10" guides="1" tooltips="1" connect="1" arrows="1" fold="1" page="1" pageScale="1" pageWidth="827" pageHeight="1169" math="0" shadow="0">
      <root>
        <mxCell id="0" />
        <mxCell id="1" parent="0" />
        <mxCell id="kQdaW1ZjUxV4kraGPTdQ-3" style="edgeStyle=orthogonalEdgeStyle;rounded=0;orthogonalLoop=1;jettySize=auto;html=1;exitX=0.5;exitY=1;exitDx=0;exitDy=0;exitPerimeter=0;entryX=0.5;entryY=0;entryDx=0;entryDy=0;" edge="1" parent="1" source="kQdaW1ZjUxV4kraGPTdQ-1" target="kQdaW1ZjUxV4kraGPTdQ-2">
          <mxGeometry relative="1" as="geometry" />
        </mxCell>
        <mxCell id="kQdaW1ZjUxV4kraGPTdQ-1" value="Начало" style="strokeWidth=2;html=1;shape=mxgraph.flowchart.terminator;whiteSpace=wrap;" vertex="1" parent="1">
          <mxGeometry x="359" y="40" width="110" height="30" as="geometry" />
        </mxCell>
        <mxCell id="kQdaW1ZjUxV4kraGPTdQ-2" value="Получение текста, решётки и алфавита" style="shape=process;whiteSpace=wrap;html=1;backgroundOutline=1;" vertex="1" parent="1">
          <mxGeometry x="354" y="100" width="120" height="60" as="geometry" />
        </mxCell>
        <mxCell id="kQdaW1ZjUxV4kraGPTdQ-4" style="edgeStyle=orthogonalEdgeStyle;rounded=0;orthogonalLoop=1;jettySize=auto;html=1;exitX=0.5;exitY=1;exitDx=0;exitDy=0;exitPerimeter=0;entryX=0.5;entryY=0;entryDx=0;entryDy=0;" edge="1" parent="1" source="kQdaW1ZjUxV4kraGPTdQ-5" target="kQdaW1ZjUxV4kraGPTdQ-10">
          <mxGeometry relative="1" as="geometry" />
        </mxCell>
        <mxCell id="kQdaW1ZjUxV4kraGPTdQ-5" value="Начало работы" style="strokeWidth=2;html=1;shape=mxgraph.flowchart.terminator;whiteSpace=wrap;" vertex="1" parent="1">
          <mxGeometry x="364" y="10" width="100" height="60" as="geometry" />
        </mxCell>
        <mxCell id="kQdaW1ZjUxV4kraGPTdQ-6" style="edgeStyle=orthogonalEdgeStyle;rounded=0;orthogonalLoop=1;jettySize=auto;html=1;exitX=0;exitY=0.5;exitDx=0;exitDy=0;entryX=0.5;entryY=0;entryDx=0;entryDy=0;" edge="1" parent="1" source="kQdaW1ZjUxV4kraGPTdQ-10" target="kQdaW1ZjUxV4kraGPTdQ-13">
          <mxGeometry relative="1" as="geometry" />
        </mxCell>
        <mxCell id="kQdaW1ZjUxV4kraGPTdQ-7" value="Нет" style="edgeLabel;html=1;align=center;verticalAlign=middle;resizable=0;points=[];" vertex="1" connectable="0" parent="kQdaW1ZjUxV4kraGPTdQ-6">
          <mxGeometry x="-0.8554" y="2" relative="1" as="geometry">
            <mxPoint as="offset" />
          </mxGeometry>
        </mxCell>
        <mxCell id="kQdaW1ZjUxV4kraGPTdQ-8" style="edgeStyle=orthogonalEdgeStyle;rounded=0;orthogonalLoop=1;jettySize=auto;html=1;exitX=1;exitY=0.5;exitDx=0;exitDy=0;entryX=0.5;entryY=0;entryDx=0;entryDy=0;" edge="1" parent="1" source="kQdaW1ZjUxV4kraGPTdQ-10" target="kQdaW1ZjUxV4kraGPTdQ-19">
          <mxGeometry relative="1" as="geometry" />
        </mxCell>
        <mxCell id="kQdaW1ZjUxV4kraGPTdQ-9" value="Да" style="edgeLabel;html=1;align=center;verticalAlign=middle;resizable=0;points=[];" vertex="1" connectable="0" parent="kQdaW1ZjUxV4kraGPTdQ-8">
          <mxGeometry x="-0.4685" y="2" relative="1" as="geometry">
            <mxPoint as="offset" />
          </mxGeometry>
        </mxCell>
        <mxCell id="kQdaW1ZjUxV4kraGPTdQ-10" value="action == 1" style="rhombus;whiteSpace=wrap;html=1;" vertex="1" parent="1">
          <mxGeometry x="359" y="90" width="110" height="80" as="geometry" />
        </mxCell>
        <mxCell id="kQdaW1ZjUxV4kraGPTdQ-11" style="edgeStyle=orthogonalEdgeStyle;rounded=0;orthogonalLoop=1;jettySize=auto;html=1;exitX=1;exitY=0.5;exitDx=0;exitDy=0;entryX=0;entryY=0.5;entryDx=0;entryDy=0;" edge="1" parent="1" source="kQdaW1ZjUxV4kraGPTdQ-13" target="kQdaW1ZjUxV4kraGPTdQ-21">
          <mxGeometry relative="1" as="geometry" />
        </mxCell>
        <mxCell id="kQdaW1ZjUxV4kraGPTdQ-12" value="Да" style="edgeLabel;html=1;align=center;verticalAlign=middle;resizable=0;points=[];" vertex="1" connectable="0" parent="kQdaW1ZjUxV4kraGPTdQ-11">
          <mxGeometry x="-0.4053" y="-2" relative="1" as="geometry">
            <mxPoint as="offset" />
          </mxGeometry>
        </mxCell>
        <mxCell id="kQdaW1ZjUxV4kraGPTdQ-13" value="action == 2" style="rhombus;whiteSpace=wrap;html=1;" vertex="1" parent="1">
          <mxGeometry x="-150" y="200" width="120" height="80" as="geometry" />
        </mxCell>
        <mxCell id="kQdaW1ZjUxV4kraGPTdQ-14" value="Ошибка Некорректный ввод" style="strokeWidth=2;html=1;shape=mxgraph.flowchart.terminator;whiteSpace=wrap;" vertex="1" parent="1">
          <mxGeometry x="-260" y="280" width="100" height="60" as="geometry" />
        </mxCell>
        <mxCell id="kQdaW1ZjUxV4kraGPTdQ-15" style="edgeStyle=orthogonalEdgeStyle;rounded=0;orthogonalLoop=1;jettySize=auto;html=1;exitX=0;exitY=0.5;exitDx=0;exitDy=0;entryX=0.5;entryY=0;entryDx=0;entryDy=0;entryPerimeter=0;" edge="1" parent="1" source="kQdaW1ZjUxV4kraGPTdQ-13" target="kQdaW1ZjUxV4kraGPTdQ-14">
          <mxGeometry relative="1" as="geometry" />
        </mxCell>
        <mxCell id="kQdaW1ZjUxV4kraGPTdQ-16" value="Нет" style="edgeLabel;html=1;align=center;verticalAlign=middle;resizable=0;points=[];" vertex="1" connectable="0" parent="kQdaW1ZjUxV4kraGPTdQ-15">
          <mxGeometry x="-0.76" y="-1" relative="1" as="geometry">
            <mxPoint as="offset" />
          </mxGeometry>
        </mxCell>
        <mxCell id="kQdaW1ZjUxV4kraGPTdQ-24" style="edgeStyle=orthogonalEdgeStyle;rounded=0;orthogonalLoop=1;jettySize=auto;html=1;exitX=0.5;exitY=1;exitDx=0;exitDy=0;entryX=0.5;entryY=0;entryDx=0;entryDy=0;" edge="1" parent="1" source="kQdaW1ZjUxV4kraGPTdQ-17" target="kQdaW1ZjUxV4kraGPTdQ-23">
          <mxGeometry relative="1" as="geometry" />
        </mxCell>
        <mxCell id="kQdaW1ZjUxV4kraGPTdQ-39" style="edgeStyle=orthogonalEdgeStyle;rounded=0;orthogonalLoop=1;jettySize=auto;html=1;exitX=0.5;exitY=1;exitDx=0;exitDy=0;entryX=0.5;entryY=0;entryDx=0;entryDy=0;" edge="1" parent="1" source="kQdaW1ZjUxV4kraGPTdQ-17" target="kQdaW1ZjUxV4kraGPTdQ-37">
          <mxGeometry relative="1" as="geometry">
            <Array as="points">
              <mxPoint x="534" y="360" />
              <mxPoint x="790" y="360" />
            </Array>
          </mxGeometry>
        </mxCell>
        <mxCell id="kQdaW1ZjUxV4kraGPTdQ-51" style="edgeStyle=orthogonalEdgeStyle;rounded=0;orthogonalLoop=1;jettySize=auto;html=1;exitX=0.5;exitY=1;exitDx=0;exitDy=0;entryX=0.5;entryY=0;entryDx=0;entryDy=0;" edge="1" parent="1" source="kQdaW1ZjUxV4kraGPTdQ-17" target="kQdaW1ZjUxV4kraGPTdQ-50">
          <mxGeometry relative="1" as="geometry">
            <Array as="points">
              <mxPoint x="534" y="360" />
              <mxPoint x="1060" y="360" />
            </Array>
          </mxGeometry>
        </mxCell>
        <mxCell id="kQdaW1ZjUxV4kraGPTdQ-72" style="edgeStyle=orthogonalEdgeStyle;rounded=0;orthogonalLoop=1;jettySize=auto;html=1;exitX=0.5;exitY=1;exitDx=0;exitDy=0;entryX=0.5;entryY=0;entryDx=0;entryDy=0;" edge="1" parent="1" source="kQdaW1ZjUxV4kraGPTdQ-17" target="kQdaW1ZjUxV4kraGPTdQ-71">
          <mxGeometry relative="1" as="geometry">
            <Array as="points">
              <mxPoint x="534" y="360" />
              <mxPoint x="1410" y="360" />
            </Array>
          </mxGeometry>
        </mxCell>
        <mxCell id="kQdaW1ZjUxV4kraGPTdQ-17" value="Шифрование" style="shape=process;whiteSpace=wrap;html=1;backgroundOutline=1;" vertex="1" parent="1">
          <mxGeometry x="474" y="290" width="120" height="60" as="geometry" />
        </mxCell>
        <mxCell id="kQdaW1ZjUxV4kraGPTdQ-18" style="edgeStyle=orthogonalEdgeStyle;rounded=0;orthogonalLoop=1;jettySize=auto;html=1;exitX=0.5;exitY=1;exitDx=0;exitDy=0;entryX=0.5;entryY=0;entryDx=0;entryDy=0;" edge="1" parent="1" source="kQdaW1ZjUxV4kraGPTdQ-19" target="kQdaW1ZjUxV4kraGPTdQ-17">
          <mxGeometry relative="1" as="geometry" />
        </mxCell>
        <mxCell id="kQdaW1ZjUxV4kraGPTdQ-19" value="Ввод и обработка текста" style="shape=process;whiteSpace=wrap;html=1;backgroundOutline=1;" vertex="1" parent="1">
          <mxGeometry x="474" y="210" width="120" height="60" as="geometry" />
        </mxCell>
        <mxCell id="kQdaW1ZjUxV4kraGPTdQ-20" style="edgeStyle=orthogonalEdgeStyle;rounded=0;orthogonalLoop=1;jettySize=auto;html=1;exitX=0.5;exitY=1;exitDx=0;exitDy=0;entryX=0.5;entryY=0;entryDx=0;entryDy=0;" edge="1" parent="1" source="kQdaW1ZjUxV4kraGPTdQ-21" target="kQdaW1ZjUxV4kraGPTdQ-22">
          <mxGeometry relative="1" as="geometry" />
        </mxCell>
        <mxCell id="kQdaW1ZjUxV4kraGPTdQ-21" value="Ввод текста" style="shape=process;whiteSpace=wrap;html=1;backgroundOutline=1;" vertex="1" parent="1">
          <mxGeometry x="10" y="210" width="120" height="60" as="geometry" />
        </mxCell>
        <mxCell id="kQdaW1ZjUxV4kraGPTdQ-195" style="edgeStyle=orthogonalEdgeStyle;rounded=0;orthogonalLoop=1;jettySize=auto;html=1;exitX=0.5;exitY=1;exitDx=0;exitDy=0;entryX=0.5;entryY=0;entryDx=0;entryDy=0;" edge="1" parent="1" source="kQdaW1ZjUxV4kraGPTdQ-22" target="kQdaW1ZjUxV4kraGPTdQ-151">
          <mxGeometry relative="1" as="geometry">
            <Array as="points">
              <mxPoint x="70" y="360" />
              <mxPoint x="-274" y="360" />
            </Array>
          </mxGeometry>
        </mxCell>
        <mxCell id="kQdaW1ZjUxV4kraGPTdQ-196" style="edgeStyle=orthogonalEdgeStyle;rounded=0;orthogonalLoop=1;jettySize=auto;html=1;exitX=0.5;exitY=1;exitDx=0;exitDy=0;entryX=0.5;entryY=0;entryDx=0;entryDy=0;" edge="1" parent="1" source="kQdaW1ZjUxV4kraGPTdQ-22" target="kQdaW1ZjUxV4kraGPTdQ-169">
          <mxGeometry relative="1" as="geometry" />
        </mxCell>
        <mxCell id="kQdaW1ZjUxV4kraGPTdQ-197" style="edgeStyle=orthogonalEdgeStyle;rounded=0;orthogonalLoop=1;jettySize=auto;html=1;exitX=0.5;exitY=1;exitDx=0;exitDy=0;" edge="1" parent="1" source="kQdaW1ZjUxV4kraGPTdQ-22" target="kQdaW1ZjUxV4kraGPTdQ-141">
          <mxGeometry relative="1" as="geometry">
            <Array as="points">
              <mxPoint x="70" y="360" />
              <mxPoint x="-544" y="360" />
            </Array>
          </mxGeometry>
        </mxCell>
        <mxCell id="kQdaW1ZjUxV4kraGPTdQ-198" style="edgeStyle=orthogonalEdgeStyle;rounded=0;orthogonalLoop=1;jettySize=auto;html=1;exitX=0.5;exitY=1;exitDx=0;exitDy=0;" edge="1" parent="1" source="kQdaW1ZjUxV4kraGPTdQ-22" target="kQdaW1ZjUxV4kraGPTdQ-131">
          <mxGeometry relative="1" as="geometry">
            <Array as="points">
              <mxPoint x="70" y="360" />
              <mxPoint x="-800" y="360" />
            </Array>
          </mxGeometry>
        </mxCell>
        <mxCell id="kQdaW1ZjUxV4kraGPTdQ-22" value="Расшифрование" style="shape=process;whiteSpace=wrap;html=1;backgroundOutline=1;" vertex="1" parent="1">
          <mxGeometry x="10" y="290" width="120" height="60" as="geometry" />
        </mxCell>
        <mxCell id="kQdaW1ZjUxV4kraGPTdQ-26" style="edgeStyle=orthogonalEdgeStyle;rounded=0;orthogonalLoop=1;jettySize=auto;html=1;exitX=0.5;exitY=1;exitDx=0;exitDy=0;entryX=0.5;entryY=0;entryDx=0;entryDy=0;" edge="1" parent="1" source="kQdaW1ZjUxV4kraGPTdQ-23" target="kQdaW1ZjUxV4kraGPTdQ-25">
          <mxGeometry relative="1" as="geometry" />
        </mxCell>
        <mxCell id="kQdaW1ZjUxV4kraGPTdQ-23" value="Вертикализировать" style="rounded=0;whiteSpace=wrap;html=1;" vertex="1" parent="1">
          <mxGeometry x="474" y="380" width="120" height="60" as="geometry" />
        </mxCell>
        <mxCell id="kQdaW1ZjUxV4kraGPTdQ-32" style="edgeStyle=orthogonalEdgeStyle;rounded=0;orthogonalLoop=1;jettySize=auto;html=1;exitX=0.5;exitY=1;exitDx=0;exitDy=0;" edge="1" parent="1" source="kQdaW1ZjUxV4kraGPTdQ-25" target="kQdaW1ZjUxV4kraGPTdQ-31">
          <mxGeometry relative="1" as="geometry" />
        </mxCell>
        <mxCell id="kQdaW1ZjUxV4kraGPTdQ-33" value="Да" style="edgeLabel;html=1;align=center;verticalAlign=middle;resizable=0;points=[];" vertex="1" connectable="0" parent="kQdaW1ZjUxV4kraGPTdQ-32">
          <mxGeometry x="-0.6571" y="-1" relative="1" as="geometry">
            <mxPoint as="offset" />
          </mxGeometry>
        </mxCell>
        <mxCell id="kQdaW1ZjUxV4kraGPTdQ-25" value="Цикл по каждому элементу" style="rhombus;whiteSpace=wrap;html=1;" vertex="1" parent="1">
          <mxGeometry x="484" y="460" width="100" height="80" as="geometry" />
        </mxCell>
        <mxCell id="kQdaW1ZjUxV4kraGPTdQ-28" value="Ошибка Некорректный ввод" style="strokeWidth=2;html=1;shape=mxgraph.flowchart.terminator;whiteSpace=wrap;" vertex="1" parent="1">
          <mxGeometry x="584" y="540" width="100" height="60" as="geometry" />
        </mxCell>
        <mxCell id="kQdaW1ZjUxV4kraGPTdQ-29" style="edgeStyle=orthogonalEdgeStyle;rounded=0;orthogonalLoop=1;jettySize=auto;html=1;exitX=1;exitY=0.5;exitDx=0;exitDy=0;entryX=0.5;entryY=0;entryDx=0;entryDy=0;entryPerimeter=0;" edge="1" parent="1" source="kQdaW1ZjUxV4kraGPTdQ-25" target="kQdaW1ZjUxV4kraGPTdQ-28">
          <mxGeometry relative="1" as="geometry" />
        </mxCell>
        <mxCell id="kQdaW1ZjUxV4kraGPTdQ-30" value="Нет" style="edgeLabel;html=1;align=center;verticalAlign=middle;resizable=0;points=[];" vertex="1" connectable="0" parent="kQdaW1ZjUxV4kraGPTdQ-29">
          <mxGeometry x="-0.6889" relative="1" as="geometry">
            <mxPoint as="offset" />
          </mxGeometry>
        </mxCell>
        <mxCell id="kQdaW1ZjUxV4kraGPTdQ-31" value="&lt;strong&gt;Вычисление новых координат&lt;/strong&gt;: [GridSizeInput[0] - elem[0] - 1, elem[1]]" style="rounded=0;whiteSpace=wrap;html=1;" vertex="1" parent="1">
          <mxGeometry x="474" y="610" width="120" height="60" as="geometry" />
        </mxCell>
        <mxCell id="kQdaW1ZjUxV4kraGPTdQ-36" style="edgeStyle=orthogonalEdgeStyle;rounded=0;orthogonalLoop=1;jettySize=auto;html=1;exitX=0.5;exitY=1;exitDx=0;exitDy=0;entryX=0.5;entryY=0;entryDx=0;entryDy=0;entryPerimeter=0;" edge="1" parent="1" source="kQdaW1ZjUxV4kraGPTdQ-31">
          <mxGeometry relative="1" as="geometry">
            <mxPoint x="534" y="700" as="targetPoint" />
          </mxGeometry>
        </mxCell>
        <mxCell id="kQdaW1ZjUxV4kraGPTdQ-49" style="edgeStyle=orthogonalEdgeStyle;rounded=0;orthogonalLoop=1;jettySize=auto;html=1;exitX=0.5;exitY=1;exitDx=0;exitDy=0;entryX=0.5;entryY=0;entryDx=0;entryDy=0;" edge="1" parent="1" source="kQdaW1ZjUxV4kraGPTdQ-37" target="kQdaW1ZjUxV4kraGPTdQ-42">
          <mxGeometry relative="1" as="geometry" />
        </mxCell>
        <mxCell id="kQdaW1ZjUxV4kraGPTdQ-37" value="Горизонтализировать" style="rounded=0;whiteSpace=wrap;html=1;" vertex="1" parent="1">
          <mxGeometry x="730" y="380" width="120" height="60" as="geometry" />
        </mxCell>
        <mxCell id="kQdaW1ZjUxV4kraGPTdQ-40" style="edgeStyle=orthogonalEdgeStyle;rounded=0;orthogonalLoop=1;jettySize=auto;html=1;exitX=0.5;exitY=1;exitDx=0;exitDy=0;" edge="1" parent="1" source="kQdaW1ZjUxV4kraGPTdQ-42" target="kQdaW1ZjUxV4kraGPTdQ-46">
          <mxGeometry relative="1" as="geometry" />
        </mxCell>
        <mxCell id="kQdaW1ZjUxV4kraGPTdQ-41" value="Да" style="edgeLabel;html=1;align=center;verticalAlign=middle;resizable=0;points=[];" vertex="1" connectable="0" parent="kQdaW1ZjUxV4kraGPTdQ-40">
          <mxGeometry x="-0.6571" y="-1" relative="1" as="geometry">
            <mxPoint as="offset" />
          </mxGeometry>
        </mxCell>
        <mxCell id="kQdaW1ZjUxV4kraGPTdQ-42" value="Цикл по каждому элементу" style="rhombus;whiteSpace=wrap;html=1;" vertex="1" parent="1">
          <mxGeometry x="740" y="460" width="100" height="80" as="geometry" />
        </mxCell>
        <mxCell id="kQdaW1ZjUxV4kraGPTdQ-43" value="Ошибка Некорректный ввод" style="strokeWidth=2;html=1;shape=mxgraph.flowchart.terminator;whiteSpace=wrap;" vertex="1" parent="1">
          <mxGeometry x="840" y="540" width="100" height="60" as="geometry" />
        </mxCell>
        <mxCell id="kQdaW1ZjUxV4kraGPTdQ-44" style="edgeStyle=orthogonalEdgeStyle;rounded=0;orthogonalLoop=1;jettySize=auto;html=1;exitX=1;exitY=0.5;exitDx=0;exitDy=0;entryX=0.5;entryY=0;entryDx=0;entryDy=0;entryPerimeter=0;" edge="1" parent="1" source="kQdaW1ZjUxV4kraGPTdQ-42" target="kQdaW1ZjUxV4kraGPTdQ-43">
          <mxGeometry relative="1" as="geometry" />
        </mxCell>
        <mxCell id="kQdaW1ZjUxV4kraGPTdQ-45" value="Нет" style="edgeLabel;html=1;align=center;verticalAlign=middle;resizable=0;points=[];" vertex="1" connectable="0" parent="kQdaW1ZjUxV4kraGPTdQ-44">
          <mxGeometry x="-0.6889" relative="1" as="geometry">
            <mxPoint as="offset" />
          </mxGeometry>
        </mxCell>
        <mxCell id="kQdaW1ZjUxV4kraGPTdQ-46" value="&lt;strong&gt;Вычисление новых координат&lt;/strong&gt;: [elem[0], GridSizeInput[1] - elem[1] - 1]" style="rounded=0;whiteSpace=wrap;html=1;" vertex="1" parent="1">
          <mxGeometry x="730" y="610" width="120" height="60" as="geometry" />
        </mxCell>
        <mxCell id="kQdaW1ZjUxV4kraGPTdQ-48" style="edgeStyle=orthogonalEdgeStyle;rounded=0;orthogonalLoop=1;jettySize=auto;html=1;exitX=0.5;exitY=1;exitDx=0;exitDy=0;entryX=0.5;entryY=0;entryDx=0;entryDy=0;entryPerimeter=0;" edge="1" parent="1" source="kQdaW1ZjUxV4kraGPTdQ-46">
          <mxGeometry relative="1" as="geometry">
            <mxPoint x="790" y="700" as="targetPoint" />
          </mxGeometry>
        </mxCell>
        <mxCell id="kQdaW1ZjUxV4kraGPTdQ-53" style="edgeStyle=orthogonalEdgeStyle;rounded=0;orthogonalLoop=1;jettySize=auto;html=1;exitX=0.5;exitY=1;exitDx=0;exitDy=0;entryX=0.5;entryY=0;entryDx=0;entryDy=0;" edge="1" parent="1" source="kQdaW1ZjUxV4kraGPTdQ-50" target="kQdaW1ZjUxV4kraGPTdQ-52">
          <mxGeometry relative="1" as="geometry" />
        </mxCell>
        <mxCell id="kQdaW1ZjUxV4kraGPTdQ-50" value="Карданос Сетевая генерация" style="rounded=0;whiteSpace=wrap;html=1;" vertex="1" parent="1">
          <mxGeometry x="1000" y="380" width="120" height="60" as="geometry" />
        </mxCell>
        <mxCell id="kQdaW1ZjUxV4kraGPTdQ-55" style="edgeStyle=orthogonalEdgeStyle;rounded=0;orthogonalLoop=1;jettySize=auto;html=1;exitX=0.5;exitY=1;exitDx=0;exitDy=0;entryX=0.5;entryY=0;entryDx=0;entryDy=0;" edge="1" parent="1" source="kQdaW1ZjUxV4kraGPTdQ-52" target="kQdaW1ZjUxV4kraGPTdQ-54">
          <mxGeometry relative="1" as="geometry" />
        </mxCell>
        <mxCell id="kQdaW1ZjUxV4kraGPTdQ-52" value="&lt;strong&gt;Проверка входных параметров&lt;/strong&gt;" style="rounded=0;whiteSpace=wrap;html=1;" vertex="1" parent="1">
          <mxGeometry x="1000" y="470" width="120" height="60" as="geometry" />
        </mxCell>
        <mxCell id="kQdaW1ZjUxV4kraGPTdQ-61" style="edgeStyle=orthogonalEdgeStyle;rounded=0;orthogonalLoop=1;jettySize=auto;html=1;exitX=0.5;exitY=1;exitDx=0;exitDy=0;entryX=0.5;entryY=0;entryDx=0;entryDy=0;" edge="1" parent="1" source="kQdaW1ZjUxV4kraGPTdQ-54" target="kQdaW1ZjUxV4kraGPTdQ-60">
          <mxGeometry relative="1" as="geometry" />
        </mxCell>
        <mxCell id="kQdaW1ZjUxV4kraGPTdQ-54" value="Если GridSizeInput равен [-1, -1], вычислить &lt;code&gt;len_&lt;/code&gt;" style="rhombus;whiteSpace=wrap;html=1;" vertex="1" parent="1">
          <mxGeometry x="975" y="560" width="170" height="90" as="geometry" />
        </mxCell>
        <mxCell id="kQdaW1ZjUxV4kraGPTdQ-56" value="Некорректный ввод" style="strokeWidth=2;html=1;shape=mxgraph.flowchart.terminator;whiteSpace=wrap;" vertex="1" parent="1">
          <mxGeometry x="1160" y="640" width="100" height="60" as="geometry" />
        </mxCell>
        <mxCell id="kQdaW1ZjUxV4kraGPTdQ-57" style="edgeStyle=orthogonalEdgeStyle;rounded=0;orthogonalLoop=1;jettySize=auto;html=1;exitX=1;exitY=0.5;exitDx=0;exitDy=0;entryX=0.5;entryY=0;entryDx=0;entryDy=0;entryPerimeter=0;" edge="1" parent="1" source="kQdaW1ZjUxV4kraGPTdQ-54" target="kQdaW1ZjUxV4kraGPTdQ-56">
          <mxGeometry relative="1" as="geometry" />
        </mxCell>
        <mxCell id="kQdaW1ZjUxV4kraGPTdQ-58" value="Нет" style="edgeLabel;html=1;align=center;verticalAlign=middle;resizable=0;points=[];" vertex="1" connectable="0" parent="kQdaW1ZjUxV4kraGPTdQ-57">
          <mxGeometry x="-0.58" y="-2" relative="1" as="geometry">
            <mxPoint as="offset" />
          </mxGeometry>
        </mxCell>
        <mxCell id="kQdaW1ZjUxV4kraGPTdQ-60" value="&lt;strong&gt;Заполнение решётки кардано&lt;/strong&gt;" style="rounded=0;whiteSpace=wrap;html=1;" vertex="1" parent="1">
          <mxGeometry x="1000" y="710" width="120" height="60" as="geometry" />
        </mxCell>
        <mxCell id="kQdaW1ZjUxV4kraGPTdQ-66" style="edgeStyle=orthogonalEdgeStyle;rounded=0;orthogonalLoop=1;jettySize=auto;html=1;exitX=1;exitY=0.5;exitDx=0;exitDy=0;entryX=0;entryY=0.5;entryDx=0;entryDy=0;" edge="1" parent="1" source="kQdaW1ZjUxV4kraGPTdQ-62" target="kQdaW1ZjUxV4kraGPTdQ-63">
          <mxGeometry relative="1" as="geometry" />
        </mxCell>
        <mxCell id="kQdaW1ZjUxV4kraGPTdQ-62" value="Выбор случайного элемента &lt;code&gt;el1&lt;/code&gt; из &lt;code&gt;fullGrid&lt;/code&gt;" style="rounded=0;whiteSpace=wrap;html=1;" vertex="1" parent="1">
          <mxGeometry x="1000" y="810" width="120" height="60" as="geometry" />
        </mxCell>
        <mxCell id="kQdaW1ZjUxV4kraGPTdQ-67" style="edgeStyle=orthogonalEdgeStyle;rounded=0;orthogonalLoop=1;jettySize=auto;html=1;exitX=0.5;exitY=1;exitDx=0;exitDy=0;entryX=0.5;entryY=0;entryDx=0;entryDy=0;" edge="1" parent="1" source="kQdaW1ZjUxV4kraGPTdQ-63" target="kQdaW1ZjUxV4kraGPTdQ-64">
          <mxGeometry relative="1" as="geometry" />
        </mxCell>
        <mxCell id="kQdaW1ZjUxV4kraGPTdQ-63" value="Вычисление симметричных элементов &lt;code&gt;el2&lt;/code&gt;, &lt;code&gt;el3&lt;/code&gt;, &lt;code&gt;el4&lt;/code&gt;" style="rounded=0;whiteSpace=wrap;html=1;" vertex="1" parent="1">
          <mxGeometry x="1181" y="810" width="120" height="60" as="geometry" />
        </mxCell>
        <mxCell id="kQdaW1ZjUxV4kraGPTdQ-68" style="edgeStyle=orthogonalEdgeStyle;rounded=0;orthogonalLoop=1;jettySize=auto;html=1;exitX=0;exitY=0.5;exitDx=0;exitDy=0;entryX=1;entryY=0.5;entryDx=0;entryDy=0;" edge="1" parent="1" source="kQdaW1ZjUxV4kraGPTdQ-64" target="kQdaW1ZjUxV4kraGPTdQ-65">
          <mxGeometry relative="1" as="geometry" />
        </mxCell>
        <mxCell id="kQdaW1ZjUxV4kraGPTdQ-64" value="Добавление &lt;code&gt;el1&lt;/code&gt; в &lt;code&gt;cardanosGrid&lt;/code&gt;" style="rounded=0;whiteSpace=wrap;html=1;" vertex="1" parent="1">
          <mxGeometry x="1181" y="910" width="120" height="60" as="geometry" />
        </mxCell>
        <mxCell id="kQdaW1ZjUxV4kraGPTdQ-65" value="Удаление &lt;code&gt;el1&lt;/code&gt;, &lt;code&gt;el2&lt;/code&gt;, &lt;code&gt;el3&lt;/code&gt;, &lt;code&gt;el4&lt;/code&gt; из &lt;code&gt;fullGrid&lt;/code&gt;" style="rounded=0;whiteSpace=wrap;html=1;" vertex="1" parent="1">
          <mxGeometry x="1000" y="910" width="120" height="60" as="geometry" />
        </mxCell>
        <mxCell id="kQdaW1ZjUxV4kraGPTdQ-70" style="edgeStyle=orthogonalEdgeStyle;rounded=0;orthogonalLoop=1;jettySize=auto;html=1;exitX=0.5;exitY=1;exitDx=0;exitDy=0;entryX=0.5;entryY=0;entryDx=0;entryDy=0;entryPerimeter=0;" edge="1" parent="1" source="kQdaW1ZjUxV4kraGPTdQ-65">
          <mxGeometry relative="1" as="geometry">
            <mxPoint x="1060" y="1000" as="targetPoint" />
          </mxGeometry>
        </mxCell>
        <mxCell id="kQdaW1ZjUxV4kraGPTdQ-74" style="edgeStyle=orthogonalEdgeStyle;rounded=0;orthogonalLoop=1;jettySize=auto;html=1;exitX=0.5;exitY=1;exitDx=0;exitDy=0;entryX=0.5;entryY=0;entryDx=0;entryDy=0;" edge="1" parent="1" source="kQdaW1ZjUxV4kraGPTdQ-71">
          <mxGeometry relative="1" as="geometry">
            <mxPoint x="1410" y="470" as="targetPoint" />
          </mxGeometry>
        </mxCell>
        <mxCell id="kQdaW1ZjUxV4kraGPTdQ-71" value="Проверка на параметры" style="rounded=0;whiteSpace=wrap;html=1;" vertex="1" parent="1">
          <mxGeometry x="1350" y="380" width="120" height="60" as="geometry" />
        </mxCell>
        <mxCell id="kQdaW1ZjUxV4kraGPTdQ-75" value="False" style="strokeWidth=2;html=1;shape=mxgraph.flowchart.terminator;whiteSpace=wrap;" vertex="1" parent="1">
          <mxGeometry x="1510" y="550" width="80" height="20" as="geometry" />
        </mxCell>
        <mxCell id="kQdaW1ZjUxV4kraGPTdQ-84" style="edgeStyle=orthogonalEdgeStyle;rounded=0;orthogonalLoop=1;jettySize=auto;html=1;exitX=0.5;exitY=1;exitDx=0;exitDy=0;entryX=0.5;entryY=0;entryDx=0;entryDy=0;" edge="1" parent="1" source="kQdaW1ZjUxV4kraGPTdQ-76" target="kQdaW1ZjUxV4kraGPTdQ-79">
          <mxGeometry relative="1" as="geometry" />
        </mxCell>
        <mxCell id="kQdaW1ZjUxV4kraGPTdQ-86" value="Да" style="edgeLabel;html=1;align=center;verticalAlign=middle;resizable=0;points=[];" vertex="1" connectable="0" parent="kQdaW1ZjUxV4kraGPTdQ-84">
          <mxGeometry x="-0.4203" relative="1" as="geometry">
            <mxPoint as="offset" />
          </mxGeometry>
        </mxCell>
        <mxCell id="kQdaW1ZjUxV4kraGPTdQ-76" value="&lt;strong&gt;Проверка корректности размера сетки&lt;/strong&gt;" style="rhombus;whiteSpace=wrap;html=1;" vertex="1" parent="1">
          <mxGeometry x="1345" y="470" width="130" height="80" as="geometry" />
        </mxCell>
        <mxCell id="kQdaW1ZjUxV4kraGPTdQ-77" style="edgeStyle=orthogonalEdgeStyle;rounded=0;orthogonalLoop=1;jettySize=auto;html=1;exitX=1;exitY=0.5;exitDx=0;exitDy=0;entryX=0.5;entryY=0;entryDx=0;entryDy=0;entryPerimeter=0;" edge="1" parent="1" source="kQdaW1ZjUxV4kraGPTdQ-76" target="kQdaW1ZjUxV4kraGPTdQ-75">
          <mxGeometry relative="1" as="geometry" />
        </mxCell>
        <mxCell id="kQdaW1ZjUxV4kraGPTdQ-78" value="Нет" style="edgeLabel;html=1;align=center;verticalAlign=middle;resizable=0;points=[];" vertex="1" connectable="0" parent="kQdaW1ZjUxV4kraGPTdQ-77">
          <mxGeometry x="-0.7524" relative="1" as="geometry">
            <mxPoint as="offset" />
          </mxGeometry>
        </mxCell>
        <mxCell id="kQdaW1ZjUxV4kraGPTdQ-88" style="edgeStyle=orthogonalEdgeStyle;rounded=0;orthogonalLoop=1;jettySize=auto;html=1;exitX=0.5;exitY=1;exitDx=0;exitDy=0;" edge="1" parent="1" source="kQdaW1ZjUxV4kraGPTdQ-79" target="kQdaW1ZjUxV4kraGPTdQ-87">
          <mxGeometry relative="1" as="geometry" />
        </mxCell>
        <mxCell id="kQdaW1ZjUxV4kraGPTdQ-89" value="Да" style="edgeLabel;html=1;align=center;verticalAlign=middle;resizable=0;points=[];" vertex="1" connectable="0" parent="kQdaW1ZjUxV4kraGPTdQ-88">
          <mxGeometry x="-0.5385" y="1" relative="1" as="geometry">
            <mxPoint y="1" as="offset" />
          </mxGeometry>
        </mxCell>
        <mxCell id="kQdaW1ZjUxV4kraGPTdQ-79" value="&lt;strong&gt;Проверка на четность размерности сетки&lt;/strong&gt;" style="rhombus;whiteSpace=wrap;html=1;" vertex="1" parent="1">
          <mxGeometry x="1350" y="584.5" width="120" height="80" as="geometry" />
        </mxCell>
        <mxCell id="kQdaW1ZjUxV4kraGPTdQ-80" value="False" style="strokeWidth=2;html=1;shape=mxgraph.flowchart.terminator;whiteSpace=wrap;" vertex="1" parent="1">
          <mxGeometry x="1510" y="680" width="80" height="20" as="geometry" />
        </mxCell>
        <mxCell id="kQdaW1ZjUxV4kraGPTdQ-81" style="edgeStyle=orthogonalEdgeStyle;rounded=0;orthogonalLoop=1;jettySize=auto;html=1;exitX=1;exitY=0.5;exitDx=0;exitDy=0;entryX=0.5;entryY=0;entryDx=0;entryDy=0;entryPerimeter=0;" edge="1" parent="1" source="kQdaW1ZjUxV4kraGPTdQ-79" target="kQdaW1ZjUxV4kraGPTdQ-80">
          <mxGeometry relative="1" as="geometry" />
        </mxCell>
        <mxCell id="kQdaW1ZjUxV4kraGPTdQ-82" value="Нет" style="edgeLabel;html=1;align=center;verticalAlign=middle;resizable=0;points=[];" vertex="1" connectable="0" parent="kQdaW1ZjUxV4kraGPTdQ-81">
          <mxGeometry x="-0.7638" y="1" relative="1" as="geometry">
            <mxPoint y="1" as="offset" />
          </mxGeometry>
        </mxCell>
        <mxCell id="kQdaW1ZjUxV4kraGPTdQ-91" style="edgeStyle=orthogonalEdgeStyle;rounded=0;orthogonalLoop=1;jettySize=auto;html=1;exitX=0.5;exitY=1;exitDx=0;exitDy=0;" edge="1" parent="1" source="kQdaW1ZjUxV4kraGPTdQ-87" target="kQdaW1ZjUxV4kraGPTdQ-90">
          <mxGeometry relative="1" as="geometry" />
        </mxCell>
        <mxCell id="kQdaW1ZjUxV4kraGPTdQ-87" value="&lt;strong&gt;Генерация четырех сеток &lt;code&gt;fst&lt;/code&gt;, &lt;code&gt;snd&lt;/code&gt;, &lt;code&gt;trd&lt;/code&gt;, &lt;code&gt;fth&lt;/code&gt;&lt;/strong&gt;" style="rounded=0;whiteSpace=wrap;html=1;" vertex="1" parent="1">
          <mxGeometry x="1350" y="710" width="120" height="60" as="geometry" />
        </mxCell>
        <mxCell id="kQdaW1ZjUxV4kraGPTdQ-96" style="edgeStyle=orthogonalEdgeStyle;rounded=0;orthogonalLoop=1;jettySize=auto;html=1;exitX=0.5;exitY=1;exitDx=0;exitDy=0;" edge="1" parent="1" source="kQdaW1ZjUxV4kraGPTdQ-90">
          <mxGeometry relative="1" as="geometry">
            <mxPoint x="1410" y="920" as="targetPoint" />
          </mxGeometry>
        </mxCell>
        <mxCell id="kQdaW1ZjUxV4kraGPTdQ-97" value="Да" style="edgeLabel;html=1;align=center;verticalAlign=middle;resizable=0;points=[];" vertex="1" connectable="0" parent="kQdaW1ZjUxV4kraGPTdQ-96">
          <mxGeometry x="-0.55" y="1" relative="1" as="geometry">
            <mxPoint as="offset" />
          </mxGeometry>
        </mxCell>
        <mxCell id="kQdaW1ZjUxV4kraGPTdQ-90" value="&lt;strong&gt;Проверка на пересечение элементов сеток&lt;/strong&gt;" style="rhombus;whiteSpace=wrap;html=1;" vertex="1" parent="1">
          <mxGeometry x="1345" y="800" width="130" height="80" as="geometry" />
        </mxCell>
        <mxCell id="kQdaW1ZjUxV4kraGPTdQ-92" value="False" style="strokeWidth=2;html=1;shape=mxgraph.flowchart.terminator;whiteSpace=wrap;" vertex="1" parent="1">
          <mxGeometry x="1510" y="900" width="80" height="20" as="geometry" />
        </mxCell>
        <mxCell id="kQdaW1ZjUxV4kraGPTdQ-93" style="edgeStyle=orthogonalEdgeStyle;rounded=0;orthogonalLoop=1;jettySize=auto;html=1;exitX=1;exitY=0.5;exitDx=0;exitDy=0;entryX=0.5;entryY=0;entryDx=0;entryDy=0;entryPerimeter=0;" edge="1" parent="1" source="kQdaW1ZjUxV4kraGPTdQ-90" target="kQdaW1ZjUxV4kraGPTdQ-92">
          <mxGeometry relative="1" as="geometry" />
        </mxCell>
        <mxCell id="kQdaW1ZjUxV4kraGPTdQ-94" value="Нет" style="edgeLabel;html=1;align=center;verticalAlign=middle;resizable=0;points=[];" vertex="1" connectable="0" parent="kQdaW1ZjUxV4kraGPTdQ-93">
          <mxGeometry x="-0.7778" y="1" relative="1" as="geometry">
            <mxPoint as="offset" />
          </mxGeometry>
        </mxCell>
        <mxCell id="kQdaW1ZjUxV4kraGPTdQ-109" style="edgeStyle=orthogonalEdgeStyle;rounded=0;orthogonalLoop=1;jettySize=auto;html=1;exitX=0.5;exitY=1;exitDx=0;exitDy=0;entryX=0.5;entryY=0;entryDx=0;entryDy=0;" edge="1" parent="1" source="kQdaW1ZjUxV4kraGPTdQ-98" target="kQdaW1ZjUxV4kraGPTdQ-105">
          <mxGeometry relative="1" as="geometry">
            <Array as="points">
              <mxPoint x="532" y="1060" />
              <mxPoint x="980" y="1060" />
            </Array>
          </mxGeometry>
        </mxCell>
        <mxCell id="kQdaW1ZjUxV4kraGPTdQ-98" value="Вывод результата" style="shape=parallelogram;perimeter=parallelogramPerimeter;whiteSpace=wrap;html=1;fixedSize=1;" vertex="1" parent="1">
          <mxGeometry x="474" y="700" width="116" height="30" as="geometry" />
        </mxCell>
        <mxCell id="kQdaW1ZjUxV4kraGPTdQ-108" style="edgeStyle=orthogonalEdgeStyle;rounded=0;orthogonalLoop=1;jettySize=auto;html=1;exitX=0.5;exitY=1;exitDx=0;exitDy=0;entryX=0.5;entryY=0;entryDx=0;entryDy=0;" edge="1" parent="1" source="kQdaW1ZjUxV4kraGPTdQ-102" target="kQdaW1ZjUxV4kraGPTdQ-105">
          <mxGeometry relative="1" as="geometry">
            <Array as="points">
              <mxPoint x="790" y="1060" />
              <mxPoint x="980" y="1060" />
            </Array>
          </mxGeometry>
        </mxCell>
        <mxCell id="kQdaW1ZjUxV4kraGPTdQ-102" value="Вывод результата" style="shape=parallelogram;perimeter=parallelogramPerimeter;whiteSpace=wrap;html=1;fixedSize=1;" vertex="1" parent="1">
          <mxGeometry x="732" y="700" width="116" height="30" as="geometry" />
        </mxCell>
        <mxCell id="kQdaW1ZjUxV4kraGPTdQ-107" style="edgeStyle=orthogonalEdgeStyle;rounded=0;orthogonalLoop=1;jettySize=auto;html=1;exitX=0.5;exitY=1;exitDx=0;exitDy=0;entryX=0.5;entryY=0;entryDx=0;entryDy=0;" edge="1" parent="1" source="kQdaW1ZjUxV4kraGPTdQ-103" target="kQdaW1ZjUxV4kraGPTdQ-105">
          <mxGeometry relative="1" as="geometry">
            <Array as="points">
              <mxPoint x="1060" y="1060" />
              <mxPoint x="980" y="1060" />
            </Array>
          </mxGeometry>
        </mxCell>
        <mxCell id="kQdaW1ZjUxV4kraGPTdQ-103" value="Вывод результата" style="shape=parallelogram;perimeter=parallelogramPerimeter;whiteSpace=wrap;html=1;fixedSize=1;" vertex="1" parent="1">
          <mxGeometry x="1002" y="1000" width="116" height="30" as="geometry" />
        </mxCell>
        <mxCell id="kQdaW1ZjUxV4kraGPTdQ-106" style="edgeStyle=orthogonalEdgeStyle;rounded=0;orthogonalLoop=1;jettySize=auto;html=1;exitX=0.5;exitY=1;exitDx=0;exitDy=0;entryX=0.5;entryY=0;entryDx=0;entryDy=0;" edge="1" parent="1" source="kQdaW1ZjUxV4kraGPTdQ-104" target="kQdaW1ZjUxV4kraGPTdQ-105">
          <mxGeometry relative="1" as="geometry">
            <Array as="points">
              <mxPoint x="1410" y="1060" />
              <mxPoint x="980" y="1060" />
            </Array>
          </mxGeometry>
        </mxCell>
        <mxCell id="kQdaW1ZjUxV4kraGPTdQ-104" value="Вывод результата" style="shape=parallelogram;perimeter=parallelogramPerimeter;whiteSpace=wrap;html=1;fixedSize=1;" vertex="1" parent="1">
          <mxGeometry x="1352" y="920" width="116" height="30" as="geometry" />
        </mxCell>
        <mxCell id="kQdaW1ZjUxV4kraGPTdQ-115" style="edgeStyle=orthogonalEdgeStyle;rounded=0;orthogonalLoop=1;jettySize=auto;html=1;exitX=0.5;exitY=1;exitDx=0;exitDy=0;entryX=0.5;entryY=0;entryDx=0;entryDy=0;" edge="1" parent="1" source="kQdaW1ZjUxV4kraGPTdQ-105" target="kQdaW1ZjUxV4kraGPTdQ-113">
          <mxGeometry relative="1" as="geometry" />
        </mxCell>
        <mxCell id="kQdaW1ZjUxV4kraGPTdQ-116" value="Да" style="edgeLabel;html=1;align=center;verticalAlign=middle;resizable=0;points=[];" vertex="1" connectable="0" parent="kQdaW1ZjUxV4kraGPTdQ-115">
          <mxGeometry x="-0.5667" relative="1" as="geometry">
            <mxPoint as="offset" />
          </mxGeometry>
        </mxCell>
        <mxCell id="kQdaW1ZjUxV4kraGPTdQ-105" value="&lt;strong&gt;Проверка символов текста &lt;code&gt;openText&lt;/code&gt; на наличие в алфавите&lt;/strong&gt;" style="rhombus;whiteSpace=wrap;html=1;" vertex="1" parent="1">
          <mxGeometry x="870" y="1070" width="220" height="80" as="geometry" />
        </mxCell>
        <mxCell id="kQdaW1ZjUxV4kraGPTdQ-110" value="Ошибка Некорректный ввод" style="strokeWidth=2;html=1;shape=mxgraph.flowchart.terminator;whiteSpace=wrap;" vertex="1" parent="1">
          <mxGeometry x="1090" y="1150" width="100" height="60" as="geometry" />
        </mxCell>
        <mxCell id="kQdaW1ZjUxV4kraGPTdQ-111" style="edgeStyle=orthogonalEdgeStyle;rounded=0;orthogonalLoop=1;jettySize=auto;html=1;exitX=1;exitY=0.5;exitDx=0;exitDy=0;entryX=0.5;entryY=0;entryDx=0;entryDy=0;entryPerimeter=0;" edge="1" parent="1" source="kQdaW1ZjUxV4kraGPTdQ-105" target="kQdaW1ZjUxV4kraGPTdQ-110">
          <mxGeometry relative="1" as="geometry" />
        </mxCell>
        <mxCell id="kQdaW1ZjUxV4kraGPTdQ-112" value="Нет" style="edgeLabel;html=1;align=center;verticalAlign=middle;resizable=0;points=[];" vertex="1" connectable="0" parent="kQdaW1ZjUxV4kraGPTdQ-111">
          <mxGeometry x="-0.6889" y="1" relative="1" as="geometry">
            <mxPoint as="offset" />
          </mxGeometry>
        </mxCell>
        <mxCell id="kQdaW1ZjUxV4kraGPTdQ-118" style="edgeStyle=orthogonalEdgeStyle;rounded=0;orthogonalLoop=1;jettySize=auto;html=1;exitX=0.5;exitY=1;exitDx=0;exitDy=0;entryX=0.5;entryY=0;entryDx=0;entryDy=0;" edge="1" parent="1" source="kQdaW1ZjUxV4kraGPTdQ-113" target="kQdaW1ZjUxV4kraGPTdQ-117">
          <mxGeometry relative="1" as="geometry" />
        </mxCell>
        <mxCell id="kQdaW1ZjUxV4kraGPTdQ-113" value="Заполнение текста &quot;заглушками&quot; до нужного размера" style="rounded=0;whiteSpace=wrap;html=1;" vertex="1" parent="1">
          <mxGeometry x="920" y="1210" width="120" height="60" as="geometry" />
        </mxCell>
        <mxCell id="kQdaW1ZjUxV4kraGPTdQ-123" style="edgeStyle=orthogonalEdgeStyle;rounded=0;orthogonalLoop=1;jettySize=auto;html=1;exitX=0.5;exitY=1;exitDx=0;exitDy=0;entryX=0.5;entryY=0;entryDx=0;entryDy=0;" edge="1" parent="1" source="kQdaW1ZjUxV4kraGPTdQ-117" target="kQdaW1ZjUxV4kraGPTdQ-119">
          <mxGeometry relative="1" as="geometry" />
        </mxCell>
        <mxCell id="kQdaW1ZjUxV4kraGPTdQ-117" value="Заполнение ячеек сетки символами из текста" style="rounded=0;whiteSpace=wrap;html=1;" vertex="1" parent="1">
          <mxGeometry x="920" y="1300" width="120" height="60" as="geometry" />
        </mxCell>
        <mxCell id="kQdaW1ZjUxV4kraGPTdQ-125" style="edgeStyle=orthogonalEdgeStyle;rounded=0;orthogonalLoop=1;jettySize=auto;html=1;exitX=1;exitY=0.5;exitDx=0;exitDy=0;entryX=0;entryY=0.5;entryDx=0;entryDy=0;" edge="1" parent="1" source="kQdaW1ZjUxV4kraGPTdQ-119" target="kQdaW1ZjUxV4kraGPTdQ-120">
          <mxGeometry relative="1" as="geometry" />
        </mxCell>
        <mxCell id="kQdaW1ZjUxV4kraGPTdQ-119" value="Заполнение" style="rounded=0;whiteSpace=wrap;html=1;" vertex="1" parent="1">
          <mxGeometry x="920" y="1390" width="120" height="60" as="geometry" />
        </mxCell>
        <mxCell id="kQdaW1ZjUxV4kraGPTdQ-126" style="edgeStyle=orthogonalEdgeStyle;rounded=0;orthogonalLoop=1;jettySize=auto;html=1;exitX=0.5;exitY=1;exitDx=0;exitDy=0;entryX=0.5;entryY=0;entryDx=0;entryDy=0;" edge="1" parent="1" source="kQdaW1ZjUxV4kraGPTdQ-120" target="kQdaW1ZjUxV4kraGPTdQ-121">
          <mxGeometry relative="1" as="geometry" />
        </mxCell>
        <mxCell id="kQdaW1ZjUxV4kraGPTdQ-120" value="Горизонтальная трансформация и заполнение" style="rounded=0;whiteSpace=wrap;html=1;" vertex="1" parent="1">
          <mxGeometry x="1090" y="1390" width="120" height="60" as="geometry" />
        </mxCell>
        <mxCell id="kQdaW1ZjUxV4kraGPTdQ-127" style="edgeStyle=orthogonalEdgeStyle;rounded=0;orthogonalLoop=1;jettySize=auto;html=1;exitX=0;exitY=0.5;exitDx=0;exitDy=0;entryX=1;entryY=0.5;entryDx=0;entryDy=0;" edge="1" parent="1" source="kQdaW1ZjUxV4kraGPTdQ-121" target="kQdaW1ZjUxV4kraGPTdQ-122">
          <mxGeometry relative="1" as="geometry" />
        </mxCell>
        <mxCell id="kQdaW1ZjUxV4kraGPTdQ-121" value="Вертикальная трансформация и заполнение" style="rounded=0;whiteSpace=wrap;html=1;" vertex="1" parent="1">
          <mxGeometry x="1090" y="1490" width="120" height="60" as="geometry" />
        </mxCell>
        <mxCell id="kQdaW1ZjUxV4kraGPTdQ-129" style="edgeStyle=orthogonalEdgeStyle;rounded=0;orthogonalLoop=1;jettySize=auto;html=1;exitX=0.5;exitY=1;exitDx=0;exitDy=0;entryX=0.5;entryY=0;entryDx=0;entryDy=0;" edge="1" parent="1" source="kQdaW1ZjUxV4kraGPTdQ-122" target="kQdaW1ZjUxV4kraGPTdQ-128">
          <mxGeometry relative="1" as="geometry">
            <Array as="points">
              <mxPoint x="980" y="1570" />
              <mxPoint x="370" y="1570" />
            </Array>
          </mxGeometry>
        </mxCell>
        <mxCell id="kQdaW1ZjUxV4kraGPTdQ-122" value="Горизонтальная трансформация и заполнение" style="rounded=0;whiteSpace=wrap;html=1;" vertex="1" parent="1">
          <mxGeometry x="920" y="1490" width="120" height="60" as="geometry" />
        </mxCell>
        <mxCell id="kQdaW1ZjUxV4kraGPTdQ-128" value="Вывод результата работы алгоритма" style="shape=parallelogram;perimeter=parallelogramPerimeter;whiteSpace=wrap;html=1;fixedSize=1;" vertex="1" parent="1">
          <mxGeometry x="310" y="1580" width="120" height="60" as="geometry" />
        </mxCell>
        <mxCell id="kQdaW1ZjUxV4kraGPTdQ-130" style="edgeStyle=orthogonalEdgeStyle;rounded=0;orthogonalLoop=1;jettySize=auto;html=1;exitX=0.5;exitY=1;exitDx=0;exitDy=0;entryX=0.5;entryY=0;entryDx=0;entryDy=0;" edge="1" parent="1" source="kQdaW1ZjUxV4kraGPTdQ-131" target="kQdaW1ZjUxV4kraGPTdQ-134">
          <mxGeometry relative="1" as="geometry" />
        </mxCell>
        <mxCell id="kQdaW1ZjUxV4kraGPTdQ-131" value="Вертикализировать" style="rounded=0;whiteSpace=wrap;html=1;" vertex="1" parent="1">
          <mxGeometry x="-860" y="380" width="120" height="60" as="geometry" />
        </mxCell>
        <mxCell id="kQdaW1ZjUxV4kraGPTdQ-132" style="edgeStyle=orthogonalEdgeStyle;rounded=0;orthogonalLoop=1;jettySize=auto;html=1;exitX=0.5;exitY=1;exitDx=0;exitDy=0;" edge="1" parent="1" source="kQdaW1ZjUxV4kraGPTdQ-134" target="kQdaW1ZjUxV4kraGPTdQ-138">
          <mxGeometry relative="1" as="geometry" />
        </mxCell>
        <mxCell id="kQdaW1ZjUxV4kraGPTdQ-133" value="Да" style="edgeLabel;html=1;align=center;verticalAlign=middle;resizable=0;points=[];" vertex="1" connectable="0" parent="kQdaW1ZjUxV4kraGPTdQ-132">
          <mxGeometry x="-0.6571" y="-1" relative="1" as="geometry">
            <mxPoint as="offset" />
          </mxGeometry>
        </mxCell>
        <mxCell id="kQdaW1ZjUxV4kraGPTdQ-134" value="Цикл по каждому элементу" style="rhombus;whiteSpace=wrap;html=1;" vertex="1" parent="1">
          <mxGeometry x="-850" y="460" width="100" height="80" as="geometry" />
        </mxCell>
        <mxCell id="kQdaW1ZjUxV4kraGPTdQ-135" value="Ошибка Некорректный ввод" style="strokeWidth=2;html=1;shape=mxgraph.flowchart.terminator;whiteSpace=wrap;" vertex="1" parent="1">
          <mxGeometry x="-750" y="540" width="100" height="60" as="geometry" />
        </mxCell>
        <mxCell id="kQdaW1ZjUxV4kraGPTdQ-136" style="edgeStyle=orthogonalEdgeStyle;rounded=0;orthogonalLoop=1;jettySize=auto;html=1;exitX=1;exitY=0.5;exitDx=0;exitDy=0;entryX=0.5;entryY=0;entryDx=0;entryDy=0;entryPerimeter=0;" edge="1" parent="1" source="kQdaW1ZjUxV4kraGPTdQ-134" target="kQdaW1ZjUxV4kraGPTdQ-135">
          <mxGeometry relative="1" as="geometry" />
        </mxCell>
        <mxCell id="kQdaW1ZjUxV4kraGPTdQ-137" value="Нет" style="edgeLabel;html=1;align=center;verticalAlign=middle;resizable=0;points=[];" vertex="1" connectable="0" parent="kQdaW1ZjUxV4kraGPTdQ-136">
          <mxGeometry x="-0.6889" relative="1" as="geometry">
            <mxPoint as="offset" />
          </mxGeometry>
        </mxCell>
        <mxCell id="kQdaW1ZjUxV4kraGPTdQ-138" value="&lt;strong&gt;Вычисление новых координат&lt;/strong&gt;: [GridSizeInput[0] - elem[0] - 1, elem[1]]" style="rounded=0;whiteSpace=wrap;html=1;" vertex="1" parent="1">
          <mxGeometry x="-860" y="610" width="120" height="60" as="geometry" />
        </mxCell>
        <mxCell id="kQdaW1ZjUxV4kraGPTdQ-139" style="edgeStyle=orthogonalEdgeStyle;rounded=0;orthogonalLoop=1;jettySize=auto;html=1;exitX=0.5;exitY=1;exitDx=0;exitDy=0;entryX=0.5;entryY=0;entryDx=0;entryDy=0;entryPerimeter=0;" edge="1" parent="1" source="kQdaW1ZjUxV4kraGPTdQ-138">
          <mxGeometry relative="1" as="geometry">
            <mxPoint x="-800" y="700" as="targetPoint" />
          </mxGeometry>
        </mxCell>
        <mxCell id="kQdaW1ZjUxV4kraGPTdQ-140" style="edgeStyle=orthogonalEdgeStyle;rounded=0;orthogonalLoop=1;jettySize=auto;html=1;exitX=0.5;exitY=1;exitDx=0;exitDy=0;entryX=0.5;entryY=0;entryDx=0;entryDy=0;" edge="1" parent="1" source="kQdaW1ZjUxV4kraGPTdQ-141" target="kQdaW1ZjUxV4kraGPTdQ-144">
          <mxGeometry relative="1" as="geometry" />
        </mxCell>
        <mxCell id="kQdaW1ZjUxV4kraGPTdQ-141" value="Горизонтализировать" style="rounded=0;whiteSpace=wrap;html=1;" vertex="1" parent="1">
          <mxGeometry x="-604" y="380" width="120" height="60" as="geometry" />
        </mxCell>
        <mxCell id="kQdaW1ZjUxV4kraGPTdQ-142" style="edgeStyle=orthogonalEdgeStyle;rounded=0;orthogonalLoop=1;jettySize=auto;html=1;exitX=0.5;exitY=1;exitDx=0;exitDy=0;" edge="1" parent="1" source="kQdaW1ZjUxV4kraGPTdQ-144" target="kQdaW1ZjUxV4kraGPTdQ-148">
          <mxGeometry relative="1" as="geometry" />
        </mxCell>
        <mxCell id="kQdaW1ZjUxV4kraGPTdQ-143" value="Да" style="edgeLabel;html=1;align=center;verticalAlign=middle;resizable=0;points=[];" vertex="1" connectable="0" parent="kQdaW1ZjUxV4kraGPTdQ-142">
          <mxGeometry x="-0.6571" y="-1" relative="1" as="geometry">
            <mxPoint as="offset" />
          </mxGeometry>
        </mxCell>
        <mxCell id="kQdaW1ZjUxV4kraGPTdQ-144" value="Цикл по каждому элементу" style="rhombus;whiteSpace=wrap;html=1;" vertex="1" parent="1">
          <mxGeometry x="-594" y="460" width="100" height="80" as="geometry" />
        </mxCell>
        <mxCell id="kQdaW1ZjUxV4kraGPTdQ-145" value="Ошибка Некорректный ввод" style="strokeWidth=2;html=1;shape=mxgraph.flowchart.terminator;whiteSpace=wrap;" vertex="1" parent="1">
          <mxGeometry x="-494" y="540" width="100" height="60" as="geometry" />
        </mxCell>
        <mxCell id="kQdaW1ZjUxV4kraGPTdQ-146" style="edgeStyle=orthogonalEdgeStyle;rounded=0;orthogonalLoop=1;jettySize=auto;html=1;exitX=1;exitY=0.5;exitDx=0;exitDy=0;entryX=0.5;entryY=0;entryDx=0;entryDy=0;entryPerimeter=0;" edge="1" parent="1" source="kQdaW1ZjUxV4kraGPTdQ-144" target="kQdaW1ZjUxV4kraGPTdQ-145">
          <mxGeometry relative="1" as="geometry" />
        </mxCell>
        <mxCell id="kQdaW1ZjUxV4kraGPTdQ-147" value="Нет" style="edgeLabel;html=1;align=center;verticalAlign=middle;resizable=0;points=[];" vertex="1" connectable="0" parent="kQdaW1ZjUxV4kraGPTdQ-146">
          <mxGeometry x="-0.6889" relative="1" as="geometry">
            <mxPoint as="offset" />
          </mxGeometry>
        </mxCell>
        <mxCell id="kQdaW1ZjUxV4kraGPTdQ-148" value="&lt;strong&gt;Вычисление новых координат&lt;/strong&gt;: [elem[0], GridSizeInput[1] - elem[1] - 1]" style="rounded=0;whiteSpace=wrap;html=1;" vertex="1" parent="1">
          <mxGeometry x="-604" y="610" width="120" height="60" as="geometry" />
        </mxCell>
        <mxCell id="kQdaW1ZjUxV4kraGPTdQ-149" style="edgeStyle=orthogonalEdgeStyle;rounded=0;orthogonalLoop=1;jettySize=auto;html=1;exitX=0.5;exitY=1;exitDx=0;exitDy=0;entryX=0.5;entryY=0;entryDx=0;entryDy=0;entryPerimeter=0;" edge="1" parent="1" source="kQdaW1ZjUxV4kraGPTdQ-148">
          <mxGeometry relative="1" as="geometry">
            <mxPoint x="-544" y="700" as="targetPoint" />
          </mxGeometry>
        </mxCell>
        <mxCell id="kQdaW1ZjUxV4kraGPTdQ-150" style="edgeStyle=orthogonalEdgeStyle;rounded=0;orthogonalLoop=1;jettySize=auto;html=1;exitX=0.5;exitY=1;exitDx=0;exitDy=0;entryX=0.5;entryY=0;entryDx=0;entryDy=0;" edge="1" parent="1" source="kQdaW1ZjUxV4kraGPTdQ-151" target="kQdaW1ZjUxV4kraGPTdQ-153">
          <mxGeometry relative="1" as="geometry" />
        </mxCell>
        <mxCell id="kQdaW1ZjUxV4kraGPTdQ-151" value="Карданос Сетевая генерация" style="rounded=0;whiteSpace=wrap;html=1;" vertex="1" parent="1">
          <mxGeometry x="-334" y="380" width="120" height="60" as="geometry" />
        </mxCell>
        <mxCell id="kQdaW1ZjUxV4kraGPTdQ-152" style="edgeStyle=orthogonalEdgeStyle;rounded=0;orthogonalLoop=1;jettySize=auto;html=1;exitX=0.5;exitY=1;exitDx=0;exitDy=0;entryX=0.5;entryY=0;entryDx=0;entryDy=0;" edge="1" parent="1" source="kQdaW1ZjUxV4kraGPTdQ-153" target="kQdaW1ZjUxV4kraGPTdQ-155">
          <mxGeometry relative="1" as="geometry" />
        </mxCell>
        <mxCell id="kQdaW1ZjUxV4kraGPTdQ-153" value="&lt;strong&gt;Проверка входных параметров&lt;/strong&gt;" style="rounded=0;whiteSpace=wrap;html=1;" vertex="1" parent="1">
          <mxGeometry x="-334" y="470" width="120" height="60" as="geometry" />
        </mxCell>
        <mxCell id="kQdaW1ZjUxV4kraGPTdQ-154" style="edgeStyle=orthogonalEdgeStyle;rounded=0;orthogonalLoop=1;jettySize=auto;html=1;exitX=0.5;exitY=1;exitDx=0;exitDy=0;entryX=0.5;entryY=0;entryDx=0;entryDy=0;" edge="1" parent="1" source="kQdaW1ZjUxV4kraGPTdQ-155" target="kQdaW1ZjUxV4kraGPTdQ-159">
          <mxGeometry relative="1" as="geometry" />
        </mxCell>
        <mxCell id="kQdaW1ZjUxV4kraGPTdQ-155" value="Если GridSizeInput равен [-1, -1], вычислить &lt;code&gt;len_&lt;/code&gt;" style="rhombus;whiteSpace=wrap;html=1;" vertex="1" parent="1">
          <mxGeometry x="-359" y="560" width="170" height="90" as="geometry" />
        </mxCell>
        <mxCell id="kQdaW1ZjUxV4kraGPTdQ-156" value="Некорректный ввод" style="strokeWidth=2;html=1;shape=mxgraph.flowchart.terminator;whiteSpace=wrap;" vertex="1" parent="1">
          <mxGeometry x="-174" y="640" width="100" height="60" as="geometry" />
        </mxCell>
        <mxCell id="kQdaW1ZjUxV4kraGPTdQ-157" style="edgeStyle=orthogonalEdgeStyle;rounded=0;orthogonalLoop=1;jettySize=auto;html=1;exitX=1;exitY=0.5;exitDx=0;exitDy=0;entryX=0.5;entryY=0;entryDx=0;entryDy=0;entryPerimeter=0;" edge="1" parent="1" source="kQdaW1ZjUxV4kraGPTdQ-155" target="kQdaW1ZjUxV4kraGPTdQ-156">
          <mxGeometry relative="1" as="geometry" />
        </mxCell>
        <mxCell id="kQdaW1ZjUxV4kraGPTdQ-158" value="Нет" style="edgeLabel;html=1;align=center;verticalAlign=middle;resizable=0;points=[];" vertex="1" connectable="0" parent="kQdaW1ZjUxV4kraGPTdQ-157">
          <mxGeometry x="-0.58" y="-2" relative="1" as="geometry">
            <mxPoint as="offset" />
          </mxGeometry>
        </mxCell>
        <mxCell id="kQdaW1ZjUxV4kraGPTdQ-159" value="&lt;strong&gt;Заполнение решётки кардано&lt;/strong&gt;" style="rounded=0;whiteSpace=wrap;html=1;" vertex="1" parent="1">
          <mxGeometry x="-334" y="710" width="120" height="60" as="geometry" />
        </mxCell>
        <mxCell id="kQdaW1ZjUxV4kraGPTdQ-160" style="edgeStyle=orthogonalEdgeStyle;rounded=0;orthogonalLoop=1;jettySize=auto;html=1;exitX=1;exitY=0.5;exitDx=0;exitDy=0;entryX=0;entryY=0.5;entryDx=0;entryDy=0;" edge="1" parent="1" source="kQdaW1ZjUxV4kraGPTdQ-161" target="kQdaW1ZjUxV4kraGPTdQ-163">
          <mxGeometry relative="1" as="geometry" />
        </mxCell>
        <mxCell id="kQdaW1ZjUxV4kraGPTdQ-161" value="Выбор случайного элемента &lt;code&gt;el1&lt;/code&gt; из &lt;code&gt;fullGrid&lt;/code&gt;" style="rounded=0;whiteSpace=wrap;html=1;" vertex="1" parent="1">
          <mxGeometry x="-334" y="810" width="120" height="60" as="geometry" />
        </mxCell>
        <mxCell id="kQdaW1ZjUxV4kraGPTdQ-162" style="edgeStyle=orthogonalEdgeStyle;rounded=0;orthogonalLoop=1;jettySize=auto;html=1;exitX=0.5;exitY=1;exitDx=0;exitDy=0;entryX=0.5;entryY=0;entryDx=0;entryDy=0;" edge="1" parent="1" source="kQdaW1ZjUxV4kraGPTdQ-163" target="kQdaW1ZjUxV4kraGPTdQ-165">
          <mxGeometry relative="1" as="geometry" />
        </mxCell>
        <mxCell id="kQdaW1ZjUxV4kraGPTdQ-163" value="Вычисление симметричных элементов &lt;code&gt;el2&lt;/code&gt;, &lt;code&gt;el3&lt;/code&gt;, &lt;code&gt;el4&lt;/code&gt;" style="rounded=0;whiteSpace=wrap;html=1;" vertex="1" parent="1">
          <mxGeometry x="-153" y="810" width="120" height="60" as="geometry" />
        </mxCell>
        <mxCell id="kQdaW1ZjUxV4kraGPTdQ-164" style="edgeStyle=orthogonalEdgeStyle;rounded=0;orthogonalLoop=1;jettySize=auto;html=1;exitX=0;exitY=0.5;exitDx=0;exitDy=0;entryX=1;entryY=0.5;entryDx=0;entryDy=0;" edge="1" parent="1" source="kQdaW1ZjUxV4kraGPTdQ-165" target="kQdaW1ZjUxV4kraGPTdQ-166">
          <mxGeometry relative="1" as="geometry" />
        </mxCell>
        <mxCell id="kQdaW1ZjUxV4kraGPTdQ-165" value="Добавление &lt;code&gt;el1&lt;/code&gt; в &lt;code&gt;cardanosGrid&lt;/code&gt;" style="rounded=0;whiteSpace=wrap;html=1;" vertex="1" parent="1">
          <mxGeometry x="-153" y="910" width="120" height="60" as="geometry" />
        </mxCell>
        <mxCell id="kQdaW1ZjUxV4kraGPTdQ-166" value="Удаление &lt;code&gt;el1&lt;/code&gt;, &lt;code&gt;el2&lt;/code&gt;, &lt;code&gt;el3&lt;/code&gt;, &lt;code&gt;el4&lt;/code&gt; из &lt;code&gt;fullGrid&lt;/code&gt;" style="rounded=0;whiteSpace=wrap;html=1;" vertex="1" parent="1">
          <mxGeometry x="-334" y="910" width="120" height="60" as="geometry" />
        </mxCell>
        <mxCell id="kQdaW1ZjUxV4kraGPTdQ-167" style="edgeStyle=orthogonalEdgeStyle;rounded=0;orthogonalLoop=1;jettySize=auto;html=1;exitX=0.5;exitY=1;exitDx=0;exitDy=0;entryX=0.5;entryY=0;entryDx=0;entryDy=0;entryPerimeter=0;" edge="1" parent="1" source="kQdaW1ZjUxV4kraGPTdQ-166">
          <mxGeometry relative="1" as="geometry">
            <mxPoint x="-274" y="1000" as="targetPoint" />
          </mxGeometry>
        </mxCell>
        <mxCell id="kQdaW1ZjUxV4kraGPTdQ-168" style="edgeStyle=orthogonalEdgeStyle;rounded=0;orthogonalLoop=1;jettySize=auto;html=1;exitX=0.5;exitY=1;exitDx=0;exitDy=0;entryX=0.5;entryY=0;entryDx=0;entryDy=0;" edge="1" parent="1" source="kQdaW1ZjUxV4kraGPTdQ-169">
          <mxGeometry relative="1" as="geometry">
            <mxPoint x="75" y="470" as="targetPoint" />
          </mxGeometry>
        </mxCell>
        <mxCell id="kQdaW1ZjUxV4kraGPTdQ-169" value="Проверка на параметры" style="rounded=0;whiteSpace=wrap;html=1;" vertex="1" parent="1">
          <mxGeometry x="15" y="380" width="120" height="60" as="geometry" />
        </mxCell>
        <mxCell id="kQdaW1ZjUxV4kraGPTdQ-170" value="False" style="strokeWidth=2;html=1;shape=mxgraph.flowchart.terminator;whiteSpace=wrap;" vertex="1" parent="1">
          <mxGeometry x="175" y="550" width="80" height="20" as="geometry" />
        </mxCell>
        <mxCell id="kQdaW1ZjUxV4kraGPTdQ-171" style="edgeStyle=orthogonalEdgeStyle;rounded=0;orthogonalLoop=1;jettySize=auto;html=1;exitX=0.5;exitY=1;exitDx=0;exitDy=0;entryX=0.5;entryY=0;entryDx=0;entryDy=0;" edge="1" parent="1" source="kQdaW1ZjUxV4kraGPTdQ-173" target="kQdaW1ZjUxV4kraGPTdQ-178">
          <mxGeometry relative="1" as="geometry" />
        </mxCell>
        <mxCell id="kQdaW1ZjUxV4kraGPTdQ-172" value="Да" style="edgeLabel;html=1;align=center;verticalAlign=middle;resizable=0;points=[];" vertex="1" connectable="0" parent="kQdaW1ZjUxV4kraGPTdQ-171">
          <mxGeometry x="-0.4203" relative="1" as="geometry">
            <mxPoint as="offset" />
          </mxGeometry>
        </mxCell>
        <mxCell id="kQdaW1ZjUxV4kraGPTdQ-173" value="&lt;strong&gt;Проверка корректности размера сетки&lt;/strong&gt;" style="rhombus;whiteSpace=wrap;html=1;" vertex="1" parent="1">
          <mxGeometry x="10" y="470" width="130" height="80" as="geometry" />
        </mxCell>
        <mxCell id="kQdaW1ZjUxV4kraGPTdQ-174" style="edgeStyle=orthogonalEdgeStyle;rounded=0;orthogonalLoop=1;jettySize=auto;html=1;exitX=1;exitY=0.5;exitDx=0;exitDy=0;entryX=0.5;entryY=0;entryDx=0;entryDy=0;entryPerimeter=0;" edge="1" parent="1" source="kQdaW1ZjUxV4kraGPTdQ-173" target="kQdaW1ZjUxV4kraGPTdQ-170">
          <mxGeometry relative="1" as="geometry" />
        </mxCell>
        <mxCell id="kQdaW1ZjUxV4kraGPTdQ-175" value="Нет" style="edgeLabel;html=1;align=center;verticalAlign=middle;resizable=0;points=[];" vertex="1" connectable="0" parent="kQdaW1ZjUxV4kraGPTdQ-174">
          <mxGeometry x="-0.7524" relative="1" as="geometry">
            <mxPoint as="offset" />
          </mxGeometry>
        </mxCell>
        <mxCell id="kQdaW1ZjUxV4kraGPTdQ-176" style="edgeStyle=orthogonalEdgeStyle;rounded=0;orthogonalLoop=1;jettySize=auto;html=1;exitX=0.5;exitY=1;exitDx=0;exitDy=0;" edge="1" parent="1" source="kQdaW1ZjUxV4kraGPTdQ-178" target="kQdaW1ZjUxV4kraGPTdQ-183">
          <mxGeometry relative="1" as="geometry" />
        </mxCell>
        <mxCell id="kQdaW1ZjUxV4kraGPTdQ-177" value="Да" style="edgeLabel;html=1;align=center;verticalAlign=middle;resizable=0;points=[];" vertex="1" connectable="0" parent="kQdaW1ZjUxV4kraGPTdQ-176">
          <mxGeometry x="-0.5385" y="1" relative="1" as="geometry">
            <mxPoint y="1" as="offset" />
          </mxGeometry>
        </mxCell>
        <mxCell id="kQdaW1ZjUxV4kraGPTdQ-178" value="&lt;strong&gt;Проверка на четность размерности сетки&lt;/strong&gt;" style="rhombus;whiteSpace=wrap;html=1;" vertex="1" parent="1">
          <mxGeometry x="15" y="584.5" width="120" height="80" as="geometry" />
        </mxCell>
        <mxCell id="kQdaW1ZjUxV4kraGPTdQ-179" value="False" style="strokeWidth=2;html=1;shape=mxgraph.flowchart.terminator;whiteSpace=wrap;" vertex="1" parent="1">
          <mxGeometry x="175" y="680" width="80" height="20" as="geometry" />
        </mxCell>
        <mxCell id="kQdaW1ZjUxV4kraGPTdQ-180" style="edgeStyle=orthogonalEdgeStyle;rounded=0;orthogonalLoop=1;jettySize=auto;html=1;exitX=1;exitY=0.5;exitDx=0;exitDy=0;entryX=0.5;entryY=0;entryDx=0;entryDy=0;entryPerimeter=0;" edge="1" parent="1" source="kQdaW1ZjUxV4kraGPTdQ-178" target="kQdaW1ZjUxV4kraGPTdQ-179">
          <mxGeometry relative="1" as="geometry" />
        </mxCell>
        <mxCell id="kQdaW1ZjUxV4kraGPTdQ-181" value="Нет" style="edgeLabel;html=1;align=center;verticalAlign=middle;resizable=0;points=[];" vertex="1" connectable="0" parent="kQdaW1ZjUxV4kraGPTdQ-180">
          <mxGeometry x="-0.7638" y="1" relative="1" as="geometry">
            <mxPoint y="1" as="offset" />
          </mxGeometry>
        </mxCell>
        <mxCell id="kQdaW1ZjUxV4kraGPTdQ-182" style="edgeStyle=orthogonalEdgeStyle;rounded=0;orthogonalLoop=1;jettySize=auto;html=1;exitX=0.5;exitY=1;exitDx=0;exitDy=0;" edge="1" parent="1" source="kQdaW1ZjUxV4kraGPTdQ-183" target="kQdaW1ZjUxV4kraGPTdQ-186">
          <mxGeometry relative="1" as="geometry" />
        </mxCell>
        <mxCell id="kQdaW1ZjUxV4kraGPTdQ-183" value="&lt;strong&gt;Генерация четырех сеток &lt;code&gt;fst&lt;/code&gt;, &lt;code&gt;snd&lt;/code&gt;, &lt;code&gt;trd&lt;/code&gt;, &lt;code&gt;fth&lt;/code&gt;&lt;/strong&gt;" style="rounded=0;whiteSpace=wrap;html=1;" vertex="1" parent="1">
          <mxGeometry x="15" y="710" width="120" height="60" as="geometry" />
        </mxCell>
        <mxCell id="kQdaW1ZjUxV4kraGPTdQ-184" style="edgeStyle=orthogonalEdgeStyle;rounded=0;orthogonalLoop=1;jettySize=auto;html=1;exitX=0.5;exitY=1;exitDx=0;exitDy=0;" edge="1" parent="1" source="kQdaW1ZjUxV4kraGPTdQ-186">
          <mxGeometry relative="1" as="geometry">
            <mxPoint x="75" y="920" as="targetPoint" />
          </mxGeometry>
        </mxCell>
        <mxCell id="kQdaW1ZjUxV4kraGPTdQ-185" value="Да" style="edgeLabel;html=1;align=center;verticalAlign=middle;resizable=0;points=[];" vertex="1" connectable="0" parent="kQdaW1ZjUxV4kraGPTdQ-184">
          <mxGeometry x="-0.55" y="1" relative="1" as="geometry">
            <mxPoint as="offset" />
          </mxGeometry>
        </mxCell>
        <mxCell id="kQdaW1ZjUxV4kraGPTdQ-186" value="&lt;strong&gt;Проверка на пересечение элементов сеток&lt;/strong&gt;" style="rhombus;whiteSpace=wrap;html=1;" vertex="1" parent="1">
          <mxGeometry x="10" y="800" width="130" height="80" as="geometry" />
        </mxCell>
        <mxCell id="kQdaW1ZjUxV4kraGPTdQ-187" value="False" style="strokeWidth=2;html=1;shape=mxgraph.flowchart.terminator;whiteSpace=wrap;" vertex="1" parent="1">
          <mxGeometry x="175" y="900" width="80" height="20" as="geometry" />
        </mxCell>
        <mxCell id="kQdaW1ZjUxV4kraGPTdQ-188" style="edgeStyle=orthogonalEdgeStyle;rounded=0;orthogonalLoop=1;jettySize=auto;html=1;exitX=1;exitY=0.5;exitDx=0;exitDy=0;entryX=0.5;entryY=0;entryDx=0;entryDy=0;entryPerimeter=0;" edge="1" parent="1" source="kQdaW1ZjUxV4kraGPTdQ-186" target="kQdaW1ZjUxV4kraGPTdQ-187">
          <mxGeometry relative="1" as="geometry" />
        </mxCell>
        <mxCell id="kQdaW1ZjUxV4kraGPTdQ-189" value="Нет" style="edgeLabel;html=1;align=center;verticalAlign=middle;resizable=0;points=[];" vertex="1" connectable="0" parent="kQdaW1ZjUxV4kraGPTdQ-188">
          <mxGeometry x="-0.7778" y="1" relative="1" as="geometry">
            <mxPoint as="offset" />
          </mxGeometry>
        </mxCell>
        <mxCell id="kQdaW1ZjUxV4kraGPTdQ-203" style="edgeStyle=orthogonalEdgeStyle;rounded=0;orthogonalLoop=1;jettySize=auto;html=1;exitX=0.5;exitY=1;exitDx=0;exitDy=0;entryX=0.5;entryY=0;entryDx=0;entryDy=0;" edge="1" parent="1" source="kQdaW1ZjUxV4kraGPTdQ-190" target="kQdaW1ZjUxV4kraGPTdQ-199">
          <mxGeometry relative="1" as="geometry">
            <Array as="points">
              <mxPoint x="-802" y="1060" />
              <mxPoint x="-274" y="1060" />
            </Array>
          </mxGeometry>
        </mxCell>
        <mxCell id="kQdaW1ZjUxV4kraGPTdQ-190" value="Вывод результата" style="shape=parallelogram;perimeter=parallelogramPerimeter;whiteSpace=wrap;html=1;fixedSize=1;" vertex="1" parent="1">
          <mxGeometry x="-860" y="700" width="116" height="30" as="geometry" />
        </mxCell>
        <mxCell id="kQdaW1ZjUxV4kraGPTdQ-202" style="edgeStyle=orthogonalEdgeStyle;rounded=0;orthogonalLoop=1;jettySize=auto;html=1;exitX=0.5;exitY=1;exitDx=0;exitDy=0;entryX=0.5;entryY=0;entryDx=0;entryDy=0;" edge="1" parent="1" source="kQdaW1ZjUxV4kraGPTdQ-191" target="kQdaW1ZjUxV4kraGPTdQ-199">
          <mxGeometry relative="1" as="geometry">
            <Array as="points">
              <mxPoint x="-544" y="1060" />
              <mxPoint x="-274" y="1060" />
            </Array>
          </mxGeometry>
        </mxCell>
        <mxCell id="kQdaW1ZjUxV4kraGPTdQ-191" value="Вывод результата" style="shape=parallelogram;perimeter=parallelogramPerimeter;whiteSpace=wrap;html=1;fixedSize=1;" vertex="1" parent="1">
          <mxGeometry x="-602" y="700" width="116" height="30" as="geometry" />
        </mxCell>
        <mxCell id="kQdaW1ZjUxV4kraGPTdQ-201" style="edgeStyle=orthogonalEdgeStyle;rounded=0;orthogonalLoop=1;jettySize=auto;html=1;exitX=0.5;exitY=1;exitDx=0;exitDy=0;entryX=0.5;entryY=0;entryDx=0;entryDy=0;" edge="1" parent="1" source="kQdaW1ZjUxV4kraGPTdQ-192" target="kQdaW1ZjUxV4kraGPTdQ-199">
          <mxGeometry relative="1" as="geometry" />
        </mxCell>
        <mxCell id="kQdaW1ZjUxV4kraGPTdQ-192" value="Вывод результата" style="shape=parallelogram;perimeter=parallelogramPerimeter;whiteSpace=wrap;html=1;fixedSize=1;" vertex="1" parent="1">
          <mxGeometry x="-332" y="1000" width="116" height="30" as="geometry" />
        </mxCell>
        <mxCell id="kQdaW1ZjUxV4kraGPTdQ-200" style="edgeStyle=orthogonalEdgeStyle;rounded=0;orthogonalLoop=1;jettySize=auto;html=1;exitX=0.5;exitY=1;exitDx=0;exitDy=0;entryX=0.5;entryY=0;entryDx=0;entryDy=0;" edge="1" parent="1" source="kQdaW1ZjUxV4kraGPTdQ-193" target="kQdaW1ZjUxV4kraGPTdQ-199">
          <mxGeometry relative="1" as="geometry">
            <Array as="points">
              <mxPoint x="75" y="1060" />
              <mxPoint x="-274" y="1060" />
            </Array>
          </mxGeometry>
        </mxCell>
        <mxCell id="kQdaW1ZjUxV4kraGPTdQ-193" value="Вывод результата" style="shape=parallelogram;perimeter=parallelogramPerimeter;whiteSpace=wrap;html=1;fixedSize=1;" vertex="1" parent="1">
          <mxGeometry x="17" y="920" width="116" height="30" as="geometry" />
        </mxCell>
        <mxCell id="kQdaW1ZjUxV4kraGPTdQ-208" style="edgeStyle=orthogonalEdgeStyle;rounded=0;orthogonalLoop=1;jettySize=auto;html=1;exitX=0.5;exitY=1;exitDx=0;exitDy=0;" edge="1" parent="1" source="kQdaW1ZjUxV4kraGPTdQ-199" target="kQdaW1ZjUxV4kraGPTdQ-207">
          <mxGeometry relative="1" as="geometry" />
        </mxCell>
        <mxCell id="kQdaW1ZjUxV4kraGPTdQ-209" value="Да" style="edgeLabel;html=1;align=center;verticalAlign=middle;resizable=0;points=[];" vertex="1" connectable="0" parent="kQdaW1ZjUxV4kraGPTdQ-208">
          <mxGeometry x="-0.525" y="-2" relative="1" as="geometry">
            <mxPoint y="-1" as="offset" />
          </mxGeometry>
        </mxCell>
        <mxCell id="kQdaW1ZjUxV4kraGPTdQ-199" value="&lt;strong&gt;Проверка символов текста &lt;code&gt;encryptedText&lt;/code&gt; на наличие в алфавите&lt;/strong&gt;" style="rhombus;whiteSpace=wrap;html=1;" vertex="1" parent="1">
          <mxGeometry x="-374" y="1070" width="200" height="80" as="geometry" />
        </mxCell>
        <mxCell id="kQdaW1ZjUxV4kraGPTdQ-204" value="Ошибка Некорректный ввод" style="strokeWidth=2;html=1;shape=mxgraph.flowchart.terminator;whiteSpace=wrap;" vertex="1" parent="1">
          <mxGeometry x="-474" y="1140" width="100" height="60" as="geometry" />
        </mxCell>
        <mxCell id="kQdaW1ZjUxV4kraGPTdQ-205" style="edgeStyle=orthogonalEdgeStyle;rounded=0;orthogonalLoop=1;jettySize=auto;html=1;exitX=0;exitY=0.5;exitDx=0;exitDy=0;entryX=0.5;entryY=0;entryDx=0;entryDy=0;entryPerimeter=0;" edge="1" parent="1" source="kQdaW1ZjUxV4kraGPTdQ-199" target="kQdaW1ZjUxV4kraGPTdQ-204">
          <mxGeometry relative="1" as="geometry" />
        </mxCell>
        <mxCell id="kQdaW1ZjUxV4kraGPTdQ-206" value="Нет" style="edgeLabel;html=1;align=center;verticalAlign=middle;resizable=0;points=[];" vertex="1" connectable="0" parent="kQdaW1ZjUxV4kraGPTdQ-205">
          <mxGeometry x="-0.6437" y="-1" relative="1" as="geometry">
            <mxPoint x="-1" as="offset" />
          </mxGeometry>
        </mxCell>
        <mxCell id="kQdaW1ZjUxV4kraGPTdQ-215" style="edgeStyle=orthogonalEdgeStyle;rounded=0;orthogonalLoop=1;jettySize=auto;html=1;exitX=0.5;exitY=1;exitDx=0;exitDy=0;entryX=0.5;entryY=0;entryDx=0;entryDy=0;" edge="1" parent="1" source="kQdaW1ZjUxV4kraGPTdQ-207" target="kQdaW1ZjUxV4kraGPTdQ-211">
          <mxGeometry relative="1" as="geometry" />
        </mxCell>
        <mxCell id="kQdaW1ZjUxV4kraGPTdQ-207" value="Чтение символов из ячеек сетки" style="rounded=0;whiteSpace=wrap;html=1;" vertex="1" parent="1">
          <mxGeometry x="-334" y="1190" width="120" height="60" as="geometry" />
        </mxCell>
        <mxCell id="kQdaW1ZjUxV4kraGPTdQ-216" style="edgeStyle=orthogonalEdgeStyle;rounded=0;orthogonalLoop=1;jettySize=auto;html=1;exitX=0.5;exitY=1;exitDx=0;exitDy=0;entryX=0.5;entryY=0;entryDx=0;entryDy=0;" edge="1" parent="1" source="kQdaW1ZjUxV4kraGPTdQ-210" target="kQdaW1ZjUxV4kraGPTdQ-213">
          <mxGeometry relative="1" as="geometry" />
        </mxCell>
        <mxCell id="kQdaW1ZjUxV4kraGPTdQ-210" value="Горизонтальная трансформация и чтение" style="rounded=0;whiteSpace=wrap;html=1;" vertex="1" parent="1">
          <mxGeometry x="-494" y="1270" width="120" height="60" as="geometry" />
        </mxCell>
        <mxCell id="kQdaW1ZjUxV4kraGPTdQ-214" style="edgeStyle=orthogonalEdgeStyle;rounded=0;orthogonalLoop=1;jettySize=auto;html=1;exitX=0;exitY=0.5;exitDx=0;exitDy=0;entryX=1;entryY=0.5;entryDx=0;entryDy=0;" edge="1" parent="1" source="kQdaW1ZjUxV4kraGPTdQ-211" target="kQdaW1ZjUxV4kraGPTdQ-210">
          <mxGeometry relative="1" as="geometry" />
        </mxCell>
        <mxCell id="kQdaW1ZjUxV4kraGPTdQ-211" value="Чтение" style="rounded=0;whiteSpace=wrap;html=1;" vertex="1" parent="1">
          <mxGeometry x="-334" y="1270" width="120" height="60" as="geometry" />
        </mxCell>
        <mxCell id="kQdaW1ZjUxV4kraGPTdQ-218" style="edgeStyle=orthogonalEdgeStyle;rounded=0;orthogonalLoop=1;jettySize=auto;html=1;exitX=0.5;exitY=1;exitDx=0;exitDy=0;entryX=0.5;entryY=0;entryDx=0;entryDy=0;" edge="1" parent="1" source="kQdaW1ZjUxV4kraGPTdQ-212" target="kQdaW1ZjUxV4kraGPTdQ-128">
          <mxGeometry relative="1" as="geometry">
            <Array as="points">
              <mxPoint x="-274" y="1570" />
              <mxPoint x="370" y="1570" />
            </Array>
          </mxGeometry>
        </mxCell>
        <mxCell id="kQdaW1ZjUxV4kraGPTdQ-212" value="Горизонтальная трансформация и чтение" style="rounded=0;whiteSpace=wrap;html=1;" vertex="1" parent="1">
          <mxGeometry x="-334" y="1360" width="120" height="60" as="geometry" />
        </mxCell>
        <mxCell id="kQdaW1ZjUxV4kraGPTdQ-217" style="edgeStyle=orthogonalEdgeStyle;rounded=0;orthogonalLoop=1;jettySize=auto;html=1;exitX=1;exitY=0.5;exitDx=0;exitDy=0;entryX=0;entryY=0.5;entryDx=0;entryDy=0;" edge="1" parent="1" source="kQdaW1ZjUxV4kraGPTdQ-213" target="kQdaW1ZjUxV4kraGPTdQ-212">
          <mxGeometry relative="1" as="geometry" />
        </mxCell>
        <mxCell id="kQdaW1ZjUxV4kraGPTdQ-213" value="Вертикальная трансформация и чтение" style="rounded=0;whiteSpace=wrap;html=1;" vertex="1" parent="1">
          <mxGeometry x="-494" y="1360" width="120" height="60" as="geometry" />
        </mxCell>
        <mxCell id="kQdaW1ZjUxV4kraGPTdQ-219" value="Конец работы" style="strokeWidth=2;html=1;shape=mxgraph.flowchart.terminator;whiteSpace=wrap;" vertex="1" parent="1">
          <mxGeometry x="310" y="1660" width="100" height="30" as="geometry" />
        </mxCell>
        <mxCell id="kQdaW1ZjUxV4kraGPTdQ-220" style="edgeStyle=orthogonalEdgeStyle;rounded=0;orthogonalLoop=1;jettySize=auto;html=1;exitX=0.5;exitY=1;exitDx=0;exitDy=0;entryX=0.5;entryY=0;entryDx=0;entryDy=0;entryPerimeter=0;" edge="1" parent="1" source="kQdaW1ZjUxV4kraGPTdQ-128" target="kQdaW1ZjUxV4kraGPTdQ-219">
          <mxGeometry relative="1" as="geometry" />
        </mxCell>
      </root>
    </mxGraphModel>
  </diagram>
</mxfile>
